<svg xmlns="http://www.w3.org/2000/svg" viewBox="0 0 60.005 60.005" width="512" height="512"><g fill="#FFF"><path d="M26.199 46.525a1.004 1.004 0 0 0-1.18.781c-1.116 5.502-5.445 9.199-10.771 9.199-5.028 0-9.446-3.3-10.948-8H8v-2H0v8h2v-3.849c2.169 4.681 6.915 7.849 12.249 7.849 6.304 0 11.42-4.341 12.731-10.801a1 1 0 0 0-.781-1.179zM26 38.814c-2.25-4.454-6.704-7.309-11.751-7.309-6.109 0-11.541 3.997-13.209 9.721a1 1 0 1 0 1.92.558c1.398-4.797 6.146-8.279 11.289-8.279 4.565 0 8.562 2.766 10.33 7H20v2h8v-8h-2v4.309z"/><path d="M59.427 42.41c-2.008-3.796-8.98-7.912-9.287-8.092-1.278-.727-2.599-.957-3.723-.646-.844.233-1.531.767-1.994 1.545-1.02 1.22-2.285 2.646-2.592 2.867-2.371 1.604-4.252 1.414-6.295-.629L24.05 25.969c-2.045-2.045-2.233-3.928-.631-6.292.224-.31 1.649-1.575 2.869-2.595.778-.464 1.312-1.151 1.546-1.996.311-1.123.081-2.444-.653-3.731-.173-.296-4.289-7.269-8.085-9.276a4.907 4.907 0 0 0-5.796.872l-2.536 2.536C4.73 11.52 4.532 18.89 10.19 26.801a1.001 1.001 0 0 0 1.627-1.165c-5.156-7.209-5.038-13.338.36-18.736l2.536-2.536a2.923 2.923 0 0 1 3.446-.519c3.294 1.743 7.256 8.453 7.289 8.51.449.787.62 1.608.457 2.196-.1.36-.323.634-.684.836l-.15.104c-.853.712-2.883 2.434-3.308 3.062-.612.904-1.018 1.793-1.231 2.666-.711-1.418-1.286-3.061-1.475-4.881a1.003 1.003 0 0 0-1.099-.892 1.003 1.003 0 0 0-.892 1.099c.722 6.953 6.13 11.479 6.359 11.668.026.021.056.029.083.047l10.61 10.61c.044.044.089.083.134.126.036.052.059.111.106.157.189.187 4.704 4.567 11.599 5.283a1.001 1.001 0 0 0 .206-1.99c-2.115-.219-3.989-.84-5.55-1.559.766-.23 1.545-.612 2.334-1.146.628-.425 2.35-2.455 3.062-3.308l.104-.151c.202-.359.475-.583.835-.683.587-.164 1.409.008 2.187.45 1.879 1.102 7.072 4.559 8.521 7.296a2.919 2.919 0 0 1-.519 3.445L54.6 49.327c-5.394 5.392-11.79 5.446-19.016.159a1 1 0 0 0-1.181 1.613c3.935 2.88 7.733 4.317 11.306 4.317 3.718 0 7.189-1.56 10.306-4.676l2.537-2.537a4.9 4.9 0 0 0 .875-5.793z"/></g></svg>